# AST/ASF file generated using VICON BodyLanguage
# -----------------------------------------------
:version 1.10
:name VICON
:units
  mass 1.0
  length 0.45
  angle deg
:documentation
   .ast/.asf automatically generated from VICON data using
   VICON BodyBuilder and BodyLanguage model FoxedUp or BRILLIANT.MOD
:root
   order TX TY TZ RX RY RZ
   axis XYZ
   position 0 0 0  
   orientation 0 0 0 
:bonedata
  begin
     id 1 
     name lhipjoint
     direction 0.650112 -0.723553 0.232005 
     length 2.45805 
     axis 0 0 0  XYZ
  end
  begin
     id 2 
     name lfemur
     direction 0.34202 -0.939693 0  
     length 7.00073  
     axis 0 0 20  XYZ
    dof rx ry rz
    limits (-160.0 20.0)
           (-70.0 70.0)
           (-60.0 70.0)
  end
  begin
     id 3 
     name ltibia
     direction 0.34202 -0.939693 0   
     length 7.8748   
     axis 0 0 20   XYZ
    dof rx
    limits (-10.0 170.0)
  end
  begin
     id 4 
     name lfoot
     direction 0.0542825 -0.14914 0.987325   
     length 1.75978   
     axis -90 7.62852e-016 20   XYZ
    dof rx rz
    limits (-45.0 90.0)
           (-70.0 20.0)
  end
  begin
     id 5 
     name ltoes
     direction 1.53509e-011 -4.21906e-011 1   
     length 0.893912   
     axis -90 7.62852e-016 20   XYZ
    dof rx
    limits (-90.0 20.0)
  end
  begin
     id 6 
     name rhipjoint
     direction -0.637897 -0.733345 0.235145   
     length 2.42522  
     axis 0 0 0  XYZ 
  end
  begin
     id 7 
     name rfemur
     direction -0.34202 -0.939693 0   
     length 7.02549   
     axis 0 0 -20   XYZ
    dof rx ry rz
    limits (-160.0 20.0)
           (-70.0 70.0)
           (-70.0 60.0)
  end
  begin
     id 8 
     name rtibia
     direction -0.34202 -0.939693 0   
     length 7.71512   
     axis 0 0 -20   XYZ
    dof rx
    limits (-10.0 170.0)
 end
 begin
     id 9 
     name rfoot
     direction -0.0822618 -0.226012 0.970645   
     length 1.90014  
     axis -90 -7.62852e-016 -20   XYZ
    dof rx rz
    limits (-45.0 90.0)
           (-20.0 70.0)
  end
  begin
     id 10 
     name rtoes
     direction -1.53542e-011 -4.21872e-011 1   
     length 0.957341   
     axis -90 -7.62852e-016 -20   XYZ
    dof rx
    limits (-90.0 20.0)
  end
  begin
     id 11 
     name lowerback
     direction -0.0022947 0.999774 -0.0211557   
     length 1.89909   
     axis 0 0 0   XYZ
    dof rx ry rz
    limits (-20.0 45.0)
           (-30.0 30.0)
           (-30.0 30.0)
  end
  begin
     id 12 
     name upperback
     direction 0.0107737 0.998635 0.0511027   
     length 1.8853   
     axis 0 0 0   XYZ
    dof rx ry rz
    limits (-20.0 45.0)
           (-30.0 30.0)
           (-30.0 30.0)
  end
  begin
     id 13 
     name thorax
     direction 0.011824 0.998136 0.0598754   
     length 1.88911   
     axis 0 0 0   XYZ
    dof rx ry rz
    limits (-20.0 45.0)
           (-30.0 30.0)
           (-30.0 30.0)
  end
  begin
     id 14 
     name lowerneck
     direction -0.0685355 0.990319 0.120714   
     length 1.91222   
     axis 0 0 0   XYZ
    dof rx ry rz
    limits (-20.0 45.0)
           (-30.0 30.0)
           (-30.0 30.0)
  end
  begin
     id 15 
     name upperneck
     direction 0.0886204 0.955665 -0.280805   
     length 1.92526   
     axis 0 0 0   XYZ
    dof rx ry rz
    limits (-20.0 45.0)
           (-30.0 30.0)
           (-30.0 30.0)
  end
  begin
     id 16
     name head
     direction 0.0233423 0.993502 -0.111393  
     length 1.96056  
     axis 0 0 0   XYZ
    dof rx ry rz
    limits (-20.0 45.0)
           (-30.0 30.0)
           (-30.0 30.0)
  end
  begin
     id 17 
     name lclavicle
     direction 0.941873 0.32922 0.0670041  
     length 3.31705  
     axis 0 0 0   XYZ
    dof ry rz
    limits (-20.0 10.0)
           (0.0 20.0)
  end
  begin
     id 18 
     name lhumerus
     direction 1 -4.4898e-011 3.38707e-028   
     length 5.29277   
     axis 180 -30 -90   XYZ
    dof rx ry rz
    limits (-60.0 90.0)
           (-90.0 90.0)
           (-90.0 90.0)
  end
  begin
     id 19
     name lradius
     direction 1 -4.48952e-011 1.63213e-028   
     length 2.85226   
     axis 180 -30 -90   XYZ
    dof rx
    limits (-10.0 170.0)
  end
  begin
     id 20
     name lwrist
     direction 1 -4.49001e-011 1.27856e-027   
     length 1.42613   
     axis -1.61767e-015 90 90   XYZ
    dof ry
    limits (-180.0 0.0)
 end
  begin
     id 21 
     name lhand
     direction 1 -4.48976e-011 2.55931e-027   
     length 0.602097   
     axis -1.63363e-015 90 90   XYZ
    dof rx rz
    limits (-90.0 90.0)
           (-45.0 45.0)
  end
  begin
     id 22 
     name lfingers
     direction 1 -4.48986e-011 5.11684e-027   
     length 0.485426   
     axis -3.26723e-015 90 90   XYZ
    dof rx
    limits (0.0 90.0)
  end
  begin
     id 23
     name lthumb
     direction 0.707107 -6.34915e-011 0.707107   
     length 0.696978   
     axis -90 45 -2.25915e-014   XYZ
    dof rx rz
    limits (-45.0 45.0)
           (-45.0 45.0)
  end
  begin
     id 24 
     name rclavicle
     direction -0.939974 0.327078 0.0973096   
     length 3.10337  
     axis 0 0 0   XYZ 
    dof ry rz
    limits (-10.0 20.0)
           (-20.0 0.0)
  end
  begin
     id 25 
     name rhumerus
     direction -1 -4.48975e-011 1.83745e-027  
     length 5.13304   
     axis 180 30 90   XYZ
    dof rx ry rz
    limits (-90.0 60.0)
           (-90.0 90.0)
           (-90.0 90.0)
  end
  begin
     id 26 
     name rradius
     direction -1 -4.48977e-011 7.1775e-029   
     length 2.74305   
     axis 180 30 90   XYZ
    dof rx
    limits (-10.0 170.0)
  end
  begin
     id 27 
     name rwrist
     direction -1 -4.48977e-011 1.27963e-027   
     length 1.37152   
     axis -1.61767e-015 -90 -90   XYZ
    dof ry
    limits (-180.0 0.0)
  end
  begin
     id 28
     name rhand
     direction -1 -4.4888e-011 2.56782e-027   
     length 0.767976   
     axis -1.63363e-015 -90 -90   XYZ
    dof rx rz
    limits (-90.0 90.0)
           (-45.0 45.0)
  end
  begin
     id 29
     name rfingers
     direction -1 -4.48947e-011 5.12384e-027   
     length 0.619162   
     axis -3.26723e-015 -90 -90   XYZ
    dof rx
    limits (0.0 90.0)
  end
  begin
     id 30
     name rthumb
     direction -0.707107 -6.34857e-011 0.707107   
     length 0.888997   
     axis -90 -45 2.25915e-014   XYZ
    dof rx rz
    limits (-45.0 45.0)
           (-45.0 45.0)
  end
:hierarchy
  begin
    root lhipjoint rhipjoint lowerback
    lhipjoint lfemur
    lfemur ltibia
    ltibia lfoot
    lfoot ltoes
    rhipjoint rfemur
    rfemur rtibia
    rtibia rfoot
    rfoot rtoes
    lowerback upperback
    upperback thorax
    thorax lowerneck lclavicle rclavicle
    lowerneck upperneck
    upperneck head
    lclavicle lhumerus
    lhumerus lradius
    lradius lwrist
    lwrist lhand lthumb
    lhand lfingers
    rclavicle rhumerus
    rhumerus rradius
    rradius rwrist
    rwrist rhand rthumb
    rhand rfingers
  end

#!OML:ASF F:\VICON\USERDATA\INSTALL\rory3\rory3.ASF
:FULLY-SPECIFIED
:DEGREES
335
root 0.104161 17.1207 -0.994946 -4.31843 6.51794 -5.68972
lowerback 3.26325 0.715769 -5.68184
upperback 7.68636 0.909291 2.18259
thorax 6.09276 0.0512167 5.50043
lowerneck 21.4362 -20.939 -24.2274
upperneck 14.1383 -37.9116 30.9125
head 13.0672 -20.0013 10.3408
rclavicle -4.47266e-015 2.14687e-014
rhumerus 65.7454 7.56318 -78.7935
rradius 37.899
rwrist 40.5831
rhand -53.8216 56.5575
rfingers 7.12502
rthumb -26.2525 28.3536
lclavicle -4.47266e-015 2.14687e-014
lhumerus -26.5766 34.9195 73.2893
lradius 17.622
lwrist -22.4568
lhand -12.6054 22.5513
lfingers 7.12502
lthumb 13.4736 52.0955
rfemur -0.224216 4.60254 25.0982
rtibia 18.6384
rfoot -13.5707 -11.9018
rtoes -26.436
lfemur -9.35464 -16.7019 -12.661
ltibia 31.9113
lfoot -17.8954 5.52858
ltoes -26.4792
336
root 0.108413 17.1223 -1.01092 -4.11099 6.49178 -5.74407
lowerback 3.47182 0.707632 -5.516
upperback 7.83713 0.888142 2.20328
thorax 6.1386 0.0444684 5.4269
lowerneck 21.2591 -21.0007 -24.1306
upperneck 14.2654 -37.9147 30.7476
head 13.073 -19.9706 10.2445
rclavicle -7.35503e-015 -9.14409e-015
rhumerus 65.543 7.71724 -79.279
rradius 37.3912
rwrist 41.1619
rhand -53.8319 55.5041
rfingers 7.12502
rthumb -26.2624 27.3017
lclavicle -7.35503e-015 -9.14409e-015
lhumerus -26.1651 34.5529 73.6862
lradius 17.8431
lwrist -22.0286
lhand -12.7163 22.5356
lfingers 7.12502
lthumb 13.3666 52.0869
rfemur -0.598994 4.63381 25.1183
rtibia 18.8222
rfoot -13.7008 -11.8958
rtoes -25.7278
lfemur -9.63463 -16.6591 -12.5259
ltibia 31.8483
lfoot -17.8002 5.48563
ltoes -26.365
337
root 0.111437 17.126 -1.02566 -3.85131 6.48853 -5.62593
lowerback 3.62678 0.705914 -5.58037
upperback 7.92854 0.879803 2.19767
thorax 6.15052 0.0339807 5.45638
lowerneck 21.2396 -20.963 -24.1695
upperneck 14.4568 -37.8625 30.6348
head 13.114 -19.9399 10.2282
rclavicle -5.76476e-015 -1.07344e-014
rhumerus 65.1836 7.87412 -79.6018
rradius 37.0333
rwrist 41.456
rhand -53.7777 55.0088
rfingers 7.12502
rthumb -26.2105 26.7986
lclavicle -5.76476e-015 -1.07344e-014
lhumerus -25.9255 33.9056 74.0845
lradius 18.2122
lwrist -21.3388
lhand -12.5258 22.494
lfingers 7.12502
lthumb 13.5502 52.0331
rfemur -0.964948 4.72236 24.9509
rtibia 18.9596
rfoot -13.8406 -11.8985
rtoes -24.7933
lfemur -9.94098 -16.6365 -12.5813
ltibia 31.79
lfoot -17.7135 5.47707
ltoes -26.1262
338
root 0.114809 17.1329 -1.03699 -3.60006 6.46558 -5.37679
lowerback 3.74857 0.806923 -5.66135
upperback 7.9972 1.01585 2.07595
thorax 6.13747 0.100403 5.37347
lowerneck 21.4258 -20.9669 -24.0583
upperneck 14.5737 -37.8666 30.6335
head 13.1146 -19.9561 10.2523
rclavicle -2.00773e-014 -1.51076e-014
rhumerus 64.7515 7.73355 -79.888
rradius 36.566
rwrist 41.5964
rhand -53.8942 55.2782
rfingers 7.12502
rthumb -26.3221 27.0847
lclavicle -2.00773e-014 -1.51076e-014
lhumerus -25.6539 32.8633 74.4802
lradius 18.554
lwrist -20.5763
lhand -12.3975 22.4043
lfingers 7.12502
lthumb 13.6739 51.9351
rfemur -1.33489 4.7734 24.6389
rtibia 19.0524
rfoot -13.6492 -11.8933
rtoes -25.2742
lfemur -10.1984 -16.6725 -12.8061
ltibia 31.7328
lfoot -17.6496 5.52692
ltoes -25.7325
339
root 0.118786 17.1377 -1.04727 -3.38018 6.40315 -5.34025
lowerback 3.82037 0.848463 -5.59427
upperback 8.1355 1.07037 2.07225
thorax 6.23873 0.124921 5.33322
lowerneck 21.3583 -20.9794 -23.9847
upperneck 14.7524 -37.8435 30.5123
head 13.1388 -19.9271 10.2053
rclavicle 8.15017e-015 -7.95139e-016
rhumerus 64.4184 7.81887 -80.2484
rradius 36.1632
rwrist 41.9397
rhand -54.0631 55.3162
rfingers 7.12502
rthumb -26.4837 27.1469
lclavicle 8.15017e-015 -7.95139e-016
lhumerus -25.3411 32.0611 74.9582
lradius 18.9111
lwrist -19.7733
lhand -12.2798 22.4011
lfingers 7.12502
lthumb 13.7874 51.9242
rfemur -1.69402 4.84798 24.5651
rtibia 19.1432
rfoot -13.4932 -11.8902
rtoes -25.791
lfemur -10.4346 -16.6439 -12.7929
ltibia 31.6644
lfoot -17.5223 5.61245
ltoes -25.9881
340
root 0.124431 17.1409 -1.05612 -3.14927 6.35722 -5.38323
lowerback 3.88885 0.727462 -5.61318
upperback 8.18446 0.896805 2.24922
thorax 6.27592 0.0276783 5.53027
lowerneck 21.3689 -20.732 -24.4732
upperneck 15.0917 -37.6153 30.2869
head 13.2448 -19.8347 10.2552
rclavicle 1.59028e-015 -2.98177e-014
rhumerus 64.0077 8.48684 -80.4739
rradius 35.7642
rwrist 42.3071
rhand -54.1846 55.4601
rfingers 7.12502
rthumb -26.6 27.3084
lclavicle 1.59028e-015 -2.98177e-014
lhumerus -25.405 31.6581 75.386
lradius 19.2562
lwrist -18.8811
lhand -12.23 22.4024
lfingers 7.12502
lthumb 13.8353 51.9223
rfemur -2.0316 4.86249 24.5641
rtibia 19.2242
rfoot -13.438 -11.8639
rtoes -26.402
lfemur -10.6905 -16.6232 -12.6889
ltibia 31.5994
lfoot -17.4119 5.78532
ltoes -26.8531
341
root 0.129091 17.1436 -1.06579 -2.95707 6.33659 -5.29744
lowerback 4.01462 0.627058 -5.7886
upperback 8.24664 0.748499 2.42057
thorax 6.29406 -0.0662614 5.81064
lowerneck 21.3851 -20.4964 -24.9963
upperneck 15.4212 -37.4084 30.0659
head 13.3633 -19.7548 10.3026
rclavicle 2.0773e-014 7.55382e-015
rhumerus 63.6377 9.09275 -80.65
rradius 35.3404
rwrist 42.7162
rhand -54.1934 55.3184
rfingers 7.12502
rthumb -26.6084 27.168
lclavicle 2.0773e-014 7.55382e-015
lhumerus -25.5256 31.3478 75.8512
lradius 19.7145
lwrist -18.1241
lhand -12.1774 22.5145
lfingers 7.12502
lthumb 13.8861 52.0309
rfemur -2.3106 4.8812 24.4261
rtibia 19.3064
rfoot -13.4205 -11.8577
rtoes -26.8052
lfemur -10.8982 -16.6154 -12.7431
ltibia 31.5476
lfoot -17.3532 5.88893
ltoes -27.101
342
root 0.133681 17.1461 -1.07746 -2.80726 6.34136 -5.17059
lowerback 4.17956 0.615308 -5.94906
upperback 8.37416 0.723218 2.48078
thorax 6.34408 -0.0965422 5.96613
lowerneck 21.4141 -20.468 -25.0118
upperneck 15.5748 -37.3121 29.8278
head 13.315 -19.7038 10.2534
rclavicle -1.78906e-014 -5.56597e-015
rhumerus 63.3235 9.30243 -80.9731
rradius 34.8985
rwrist 43.2361
rhand -54.0838 55.1656
rfingers 7.12502
rthumb -26.5035 26.9993
lclavicle -1.78906e-014 -5.56597e-015
lhumerus -25.3914 31.0909 76.2178
lradius 20.0398
lwrist -17.7573
lhand -12.0725 22.6629
lfingers 7.12502
lthumb 13.9871 52.1723
rfemur -2.5565 4.86112 24.2424
rtibia 19.4098
rfoot -13.4428 -11.8292
rtoes -26.5933
lfemur -11.0617 -16.6183 -12.8506
ltibia 31.4827
lfoot -17.2447 5.82641
ltoes -26.5416
343
root 0.13644 17.1475 -1.08665 -2.62227 6.38175 -4.9585
lowerback 4.29716 0.579395 -6.22849
upperback 8.49801 0.669881 2.49536
thorax 6.42365 -0.148065 6.14137
lowerneck 21.4523 -20.4296 -24.992
upperneck 15.778 -37.2042 29.5673
head 13.2687 -19.6467 10.2009
rclavicle 5.86415e-015 -2.78299e-015
rhumerus 62.9979 9.54467 -81.3536
rradius 34.4808
rwrist 43.598
rhand -54.0594 55.5683
rfingers 7.12502
rthumb -26.4802 27.3985
lclavicle 5.86415e-015 -2.78299e-015
lhumerus -25.2589 30.5754 76.5713
lradius 20.4155
lwrist -17.2296
lhand -11.7439 22.7486
lfingers 7.12502
lthumb 14.3038 52.2359
rfemur -2.8484 4.87638 23.9652
rtibia 19.5715
rfoot -13.5106 -11.8329
rtoes -26.0735
lfemur -11.2423 -16.6522 -13.0416
ltibia 31.3799
lfoot -17.1165 5.73503
ltoes -26.0841
344
root 0.140795 17.1511 -1.09617 -2.3838 6.42998 -4.74771
lowerback 4.43784 0.578741 -6.4095
upperback 8.557 0.661869 2.48952
thorax 6.41145 -0.164581 6.2375
lowerneck 21.5695 -20.3799 -25.1325
upperneck 16.0167 -37.184 29.4329
head 13.3403 -19.6495 10.1945
rclavicle -7.35503e-015 -9.54166e-015
rhumerus 62.6314 9.64391 -81.5845
rradius 34.0263
rwrist 43.6568
rhand -53.5687 56.1258
rfingers 7.12502
rthumb -26.0104 27.8861
lclavicle -7.35503e-015 -9.54166e-015
lhumerus -25.1064 29.8249 76.953
lradius 20.7625
lwrist -16.5178
lhand -11.5106 22.593
lfingers 7.12502
lthumb 14.5286 52.0642
rfemur -3.19608 4.84479 23.6768
rtibia 19.7213
rfoot -13.5494 -11.827
rtoes -25.9937
lfemur -11.4882 -16.6821 -13.2241
ltibia 31.2879
lfoot -17.0738 5.74253
ltoes -26.0746
345
root 0.144817 17.1565 -1.10761 -2.09139 6.47221 -4.58294
lowerback 4.55822 0.572869 -6.54399
upperback 8.60386 0.647158 2.49199
thorax 6.39826 -0.181467 6.31607
lowerneck 21.6217 -20.3319 -25.2187
upperneck 16.2531 -37.1353 29.2778
head 13.391 -19.629 10.1758
rclavicle 2.88238e-015 9.14409e-015
rhumerus 62.4008 9.63849 -81.8836
rradius 33.3962
rwrist 43.8785
rhand -52.6197 57.159
rfingers 7.12502
rthumb -25.1014 28.789
lclavicle 2.88238e-015 9.14409e-015
lhumerus -24.8963 29.1891 77.2983
lradius 21.0691
lwrist -15.8018
lhand -11.5108 22.3824
lfingers 7.12502
lthumb 14.5284 51.8536
rfemur -3.59631 4.77598 23.4359
rtibia 19.8343
rfoot -13.5909 -11.7604
rtoes -26.1058
lfemur -11.8185 -16.6682 -13.3275
ltibia 31.2082
lfoot -16.937 5.81889
ltoes -26.7063
346
root 0.146359 17.162 -1.11934 -1.79996 6.45483 -4.63449
lowerback 4.64929 0.576554 -6.53253
upperback 8.63542 0.642864 2.58299
thorax 6.38159 -0.186793 6.40663
lowerneck 21.6001 -20.3015 -25.2215
upperneck 16.5167 -37.0606 29.0339
head 13.4062 -19.5806 10.1141
rclavicle -2.73329e-014 -4.37326e-015
rhumerus 62.075 9.81128 -82.0168
rradius 32.8596
rwrist 44.1193
rhand -52.678 57.6885
rfingers 7.12502
rthumb -25.1573 29.3263
lclavicle -2.73329e-014 -4.37326e-015
lhumerus -24.8231 28.4783 77.6661
lradius 21.471
lwrist -14.9415
lhand -11.4443 22.2831
lfingers 7.12502
lthumb 14.5924 51.7498
rfemur -4.01614 4.79884 23.4591
rtibia 19.9009
rfoot -13.5077 -11.7524
rtoes -26.4755
lfemur -12.1724 -16.6185 -13.1685
ltibia 31.1487
lfoot -16.8206 5.87345
ltoes -26.8592
347
root 0.149118 17.1627 -1.1305 -1.61075 6.43387 -4.64129
lowerback 4.8196 0.597704 -6.55965
upperback 8.66017 0.656609 2.67872
thorax 6.30993 -0.183263 6.52325
lowerneck 21.6425 -20.3009 -25.1679
upperneck 16.7804 -36.9749 28.6389
head 13.3436 -19.5255 9.9991
rclavicle 6.65929e-015 -1.98785e-014
rhumerus 61.5671 10.1579 -82.0458
rradius 32.4369
rwrist 44.1376
rhand -54.0279 58.2257
rfingers 7.12502
rthumb -26.45 30.0514
lclavicle 6.65929e-015 -1.98785e-014
lhumerus -24.9565 27.9755 77.9849
lradius 21.9447
lwrist -14.2958
lhand -11.3302 22.3831
lfingers 7.12502
lthumb 14.7024 51.8418
rfemur -4.31347 4.8492 23.4258
rtibia 19.9648
rfoot -13.443 -11.7393
rtoes -26.5947
lfemur -12.3952 -16.5892 -13.1053
ltibia 31.1012
lfoot -16.6959 5.90857
ltoes -27.0662
348
root 0.155838 17.1658 -1.14174 -1.43961 6.43505 -4.52114
lowerback 4.9796 0.606529 -6.62964
upperback 8.68493 0.65689 2.71475
thorax 6.24695 -0.187143 6.60037
lowerneck 21.8809 -20.2428 -25.2133
upperneck 16.9317 -36.8534 28.341
head 13.2436 -19.4857 9.96632
rclavicle -1.77912e-014 -4.37326e-015
rhumerus 61.0512 10.3135 -82.5158
rradius 31.8855
rwrist 44.3911
rhand -54.6955 58.9624
rfingers 7.12502
rthumb -27.0889 30.8858
lclavicle -1.77912e-014 -4.37326e-015
lhumerus -25.1467 27.7002 78.2217
lradius 22.369
lwrist -13.836
lhand -11.1484 22.2268
lfingers 7.12502
lthumb 14.8775 51.6726
rfemur -4.55694 4.84975 23.2367
rtibia 20.0242
rfoot -13.3997 -11.6801
rtoes -26.3204
lfemur -12.5939 -16.6124 -13.2143
ltibia 31.0659
lfoot -16.5896 5.88969
ltoes -26.5991
349
root 0.161686 17.1705 -1.15363 -1.25852 6.42133 -4.48947
lowerback 5.16817 0.595661 -6.63179
upperback 8.75339 0.629571 2.76731
thorax 6.21931 -0.20401 6.65696
lowerneck 22.0629 -20.1518 -25.3688
upperneck 16.9873 -36.7385 28.2377
head 13.2017 -19.4569 10.0047
rclavicle -1.04362e-014 7.35503e-015
rhumerus 60.744 10.321 -83.426
rradius 31.0518
rwrist 45.0599
rhand -54.4609 58.0886
rfingers 7.12502
rthumb -26.8645 29.9773
lclavicle -1.04362e-014 7.35503e-015
lhumerus -25.1213 27.3126 78.5276
lradius 22.7752
lwrist -13.2452
lhand -11.077 22.2935
lfingers 7.12502
lthumb 14.9463 51.7342
rfemur -4.83454 4.82058 23.156
rtibia 20.1117
rfoot -13.4087 -11.6464
rtoes -26.0633
lfemur -12.8119 -16.6295 -13.2058
ltibia 31.0159
lfoot -16.5414 5.81283
ltoes -25.6432
